<?xml version="1.0" encoding="UTF-8"?>
<svg version="1.1" xmlns="http://www.w3.org/2000/svg" width="436" height="284">
<path d="M0 0 C0.74344666 0.00060425 1.48689331 0.0012085 2.25286865 0.00183105 C69.19435261 0.14866004 136.44363633 20.79799069 186.625 66.1875 C187.30820312 66.79851562 187.99140625 67.40953125 188.6953125 68.0390625 C206.7311014 85.06820272 217.73205056 108.187583 222.625 132.1875 C222.9653125 133.85039062 222.9653125 133.85039062 223.3125 135.546875 C226.77544576 156.42074252 225.16156165 178.43805125 221.625 199.1875 C221.50366699 199.94836914 221.38233398 200.70923828 221.25732422 201.49316406 C220.09094418 207.75884195 217.51385799 212.98243208 214.5 218.5625 C214.0064502 219.48716064 213.51290039 220.41182129 213.00439453 221.36450195 C207.1385213 232.17381558 200.06569616 241.23745149 191.625 250.1875 C190.93921875 250.94933594 190.2534375 251.71117187 189.546875 252.49609375 C175.23577649 267.78776753 154.05258044 277.6034997 133.19921875 278.5703125 C103.41491973 279.34423028 78.62907696 270.57811092 56.63671875 250.3515625 C48.49986573 242.08269146 42.5220033 233.02753992 37 222.875 C27.17458644 205.193852 16.37968014 188.10603769 2.625 173.1875 C1.80773437 172.28902344 0.99046875 171.39054688 0.1484375 170.46484375 C-10.13683347 159.64082049 -22.82898306 151.1343692 -38.06640625 149.984375 C-52.7396538 149.74481177 -64.47520257 154.08587131 -75.3125 164.02734375 C-93.22985477 182.79305812 -104.54685706 207.95129821 -115.5625 231.125 C-136.68085252 275.49188775 -136.68085252 275.49188775 -156.375 283.1875 C-163.555953 285.57048886 -174.45152768 285.48466608 -181.375 282.5625 C-183.42578125 281.44921875 -183.42578125 281.44921875 -185.375 280.1875 C-186.06980469 279.74019531 -186.76460937 279.29289062 -187.48046875 278.83203125 C-202.08326255 268.61281532 -207.65885341 252.2707138 -210.90551758 235.43676758 C-218.77630993 180.96335346 -196.70934648 122.66074459 -164.51342773 79.52563477 C-161.85455418 76.03554132 -159.13420238 72.59867658 -156.375 69.1875 C-155.88032227 68.57567871 -155.38564453 67.96385742 -154.87597656 67.33349609 C-144.04031842 54.0621673 -132.06580233 41.53495339 -118.375 31.1875 C-117.59253906 30.58808594 -116.81007813 29.98867188 -116.00390625 29.37109375 C-83.53638491 5.54025296 -39.23604844 -0.05934366 0 0 Z M-44.375 6.1875 C-45.36000488 6.34847168 -46.34500977 6.50944336 -47.35986328 6.67529297 C-69.13009041 10.37897109 -92.31959522 15.95478177 -110.375 29.1875 C-110.94395996 29.59693848 -111.51291992 30.00637695 -112.09912109 30.42822266 C-161.67231377 66.52279914 -197.04081527 125.22379391 -206.97998047 185.54980469 C-211.30284229 214.41519352 -210.95729879 243.24468324 -194.91015625 268.4921875 C-189.69884793 275.28954617 -181.08170753 280.68174478 -172.62109375 282.0390625 C-162.16966653 282.72976552 -153.4669165 279.47874987 -145.33203125 272.98046875 C-129.62827776 258.59319759 -121.05222057 235.85050516 -111.90942383 217.11938477 C-83.73659414 159.51508336 -83.73659414 159.51508336 -57.375 149.1875 C-43.08226664 144.73848375 -28.88646843 147.35936082 -15.73388672 154.01928711 C9.65149444 167.86300487 25.78709306 196.69728072 39.375 221.09375 C53.35642725 246.13170283 72.51566192 263.73826819 100.3671875 272.34375 C123.94660657 278.99852812 146.98572447 276.37328323 168.66015625 264.96875 C190.82785767 251.65060527 208.57496429 229.42585652 217.625 205.1875 C218.3316714 202.10349574 218.80730138 199.00658968 219.25 195.875 C219.37117188 195.08416016 219.49234375 194.29332031 219.6171875 193.47851562 C225.05994648 157.06527483 222.66177475 118.52503258 200.875 87.5625 C197.57419128 83.26105241 194.11592593 79.08558012 190.625 74.9375 C189.9139209 74.08744385 189.9139209 74.08744385 189.18847656 73.22021484 C185.35932889 68.76587368 181.12865909 64.94957099 176.625 61.1875 C176.0165625 60.67783691 175.408125 60.16817383 174.78125 59.64306641 C136.82623251 28.42629151 88.83285903 11.75740545 40.625 5.1875 C39.81095703 5.07035645 38.99691406 4.95321289 38.15820312 4.83251953 C11.2511859 1.08801527 -17.63574301 1.74199368 -44.375 6.1875 Z " fill="#000000" transform="translate(211.375,-0.1875)"/>
<path d="M0 0 C0.719599 -0.00067474 1.439198 -0.00134949 2.18060303 -0.00204468 C24.0707541 0.0302488 45.20805246 2.92836334 66.4375 8.25 C67.30648926 8.46495117 68.17547852 8.67990234 69.07080078 8.90136719 C101.34152955 17.04359519 133.31893522 31.09372154 158.4375 53.25 C159.14261719 53.87132812 159.84773438 54.49265625 160.57421875 55.1328125 C175.47812412 69.1290144 185.40637164 89.54740078 186.59863281 110.01635742 C187.04010188 139.86428626 183.80577121 160.28781344 162.83984375 182.90234375 C149.16509683 196.26579562 133.23574736 201.70319888 114.52856445 201.61132812 C95.0190749 201.21640608 75.776261 192.2208366 61.7890625 178.6875 C56.86591994 173.48345741 52.91571391 168.09279356 49.19140625 161.9921875 C34.63262629 139.22990791 10.64677614 120.18572445 -15.79296875 113.703125 C-29.20154972 111.50933742 -40.90000562 113.09409389 -52.125 120.9375 C-53.95619906 122.35110267 -55.76916187 123.7886647 -57.5625 125.25 C-58.79613281 126.25353516 -58.79613281 126.25353516 -60.0546875 127.27734375 C-79.71386047 144.14152248 -93.01973127 167.15775819 -105.51489258 189.52050781 C-115.3728634 207.07954367 -115.3728634 207.07954367 -122.5625 209.25 C-130.61596216 210.36959664 -136.92175179 208.96029815 -143.5625 204.25 C-154.60375806 194.58405654 -159.15468462 180.194946 -160.44921875 165.9296875 C-162.12740332 126.23194208 -146.91978973 78.87606006 -119.92529297 49.46630859 C-87.30826517 14.57735537 -47.04380366 0.04002746 0 0 Z M-59.5625 11.25 C-60.49707031 11.52199219 -61.43164062 11.79398438 -62.39453125 12.07421875 C-94.45895718 23.27218692 -123.84172066 52.84302416 -138.60913086 82.60864258 C-152.10285852 111.26559818 -164.23324216 151.86803281 -153.8125 183 C-150.0928257 192.40858792 -144.36451969 200.08236908 -135.65625 205.41796875 C-133.07372285 206.4442342 -130.96368344 206.58611788 -128.1875 206.625 C-127.27226563 206.65335938 -126.35703125 206.68171875 -125.4140625 206.7109375 C-121.61120389 206.09622885 -119.21823338 204.97875169 -116.5625 202.25 C-113.91032256 198.38041704 -111.68478613 194.30196054 -109.4375 190.1875 C-108.11641077 187.825448 -106.78444893 185.46957597 -105.453125 183.11328125 C-105.1232962 182.52657654 -104.79346741 181.93987183 -104.4536438 181.33538818 C-97.34938997 168.73064875 -89.56239037 156.58624216 -80.5625 145.25 C-79.84707031 144.33089844 -79.13164063 143.41179687 -78.39453125 142.46484375 C-67.57603938 128.85077699 -53.62972749 113.47280274 -35.5625 110.25 C-9.33273055 108.50516256 12.15193386 119.65350076 31.47851562 136.51611328 C40.39532557 144.55234858 47.42436056 153.88651498 54.25024414 163.70874023 C66.64760408 181.47772439 82.57381407 193.29070903 104.01245117 197.85083008 C120.90533522 200.63144675 137.10999937 197.67277385 151.4375 188.25 C160.4789297 181.7632451 167.28257459 174.43621259 173.4375 165.25 C174.12070312 164.23164063 174.80390625 163.21328125 175.5078125 162.1640625 C186.06502934 144.6275977 186.05122122 119.08377783 182.3125 99.5 C181.74751013 97.39959784 181.12142841 95.31473841 180.4375 93.25 C180.0353125 92.02667969 179.633125 90.80335937 179.21875 89.54296875 C168.77071157 59.99830033 142.70941453 42.25651349 115.6484375 29.21875 C88.25932356 16.30251214 59.49702517 7.94707534 29.4375 4.25 C28.71183838 4.15428711 27.98617676 4.05857422 27.23852539 3.95996094 C18.93804818 2.98043968 10.59635759 3.00636287 2.25 3 C1.45303711 2.99932526 0.65607422 2.99865051 -0.16503906 2.99795532 C-20.58789457 3.02532563 -39.93079209 5.48448244 -59.5625 11.25 Z " fill="#000000" transform="translate(192.5625,18.75)"/>
<path d="M0 0 C1.00224609 0.17160645 2.00449219 0.34321289 3.03710938 0.52001953 C38.01781829 6.67851753 70.43585802 20.46299691 93 49 C98.03093546 56.40973941 102.20635377 64.48673069 105 73 C105.22429687 73.65355469 105.44859375 74.30710937 105.6796875 74.98046875 C107.17355973 80.27041358 107.20344023 85.60392072 107.25 91.0625 C107.2593457 91.81853516 107.26869141 92.57457031 107.27832031 93.35351562 C107.20082431 107.05242442 100.6322114 116.86352503 91.4375 126.6484375 C77.7553857 139.84816957 62.84178841 143.54690364 44.4375 143.26953125 C27.08512716 142.65798061 10.82181349 134.57148946 -1 122 C-5.42336356 117.05023261 -9.6650934 111.94025275 -13.79296875 106.7421875 C-25.62756446 92.30690286 -43.8935627 82.01242949 -62 78 C-78.31193175 77.01384754 -89.10535347 79.34239526 -102 90 C-103.7228092 91.62169624 -105.35347092 93.30035708 -107 95 C-107.66 95 -108.32 95 -109 95 C-109.24105469 95.56460938 -109.48210937 96.12921875 -109.73046875 96.7109375 C-111.25668047 99.46281463 -113.12029633 101.36462633 -115.3125 103.625 C-125.13853928 114.27342063 -133.37398771 126.37381436 -140.66601562 138.8737793 C-143.38445623 143.42811947 -146.22687587 146.61343793 -151 149 C-156.67504295 149.59020447 -161.20645352 149.33464103 -166 146 C-175.49043309 137.32124869 -178.14091851 126.51615644 -179 114 C-179.311593 81.49046342 -161.65094334 49.65203109 -139.71875 26.6484375 C-104.09667442 -8.05237751 -46.2207125 -8.14024576 0 0 Z M-89 3 C-90.12051758 3.24943359 -90.12051758 3.24943359 -91.26367188 3.50390625 C-105.82330335 6.91336028 -119.72909069 13.05006683 -131 23 C-131.79535156 23.65355469 -132.59070313 24.30710937 -133.41015625 24.98046875 C-155.93520328 44.09368485 -173.10271927 76.38994527 -175.79272461 105.76635742 C-176.63419696 118.3856047 -174.93236059 129.20906134 -168 140 C-165.26885355 143.01456731 -162.16606957 145.74041209 -158.01171875 146.23828125 C-157.24472656 146.26277344 -156.47773438 146.28726563 -155.6875 146.3125 C-154.92824219 146.34988281 -154.16898438 146.38726562 -153.38671875 146.42578125 C-149.96477012 145.81531906 -148.48324047 144.42096484 -146 142 C-144.37382931 139.62415617 -142.88827842 137.28877168 -141.4375 134.8125 C-127.50304322 111.87854169 -108.7518878 82.12829038 -81 75 C-59.48448519 72.49776672 -40.37801004 80.35296611 -23.625 93.4375 C-15.99710129 99.59610331 -9.33857521 106.04028661 -3.5625 114 C7.8363415 129.43348299 23.14323301 137.49182506 41.9140625 140.4609375 C58.03466126 142.37499276 72.51697727 138.1252282 85.26342773 128.2277832 C93.12354535 121.72511659 102.74730373 111.36053503 104 101 C105.42245812 80.50530555 100.54796831 62.78730191 87 47 C86.35546875 46.21109375 85.7109375 45.4221875 85.046875 44.609375 C64.60666594 20.535351 34.64783377 9.71693956 4.5 3.8125 C3.71931152 3.65765137 2.93862305 3.50280273 2.13427734 3.34326172 C-13.61998357 0.41660601 -29.26196432 -0.37678749 -45.25 -0.3125 C-46.66499786 -0.30976578 -46.66499786 -0.30976578 -48.10858154 -0.30697632 C-61.89246417 -0.26215424 -75.49378883 -0.04399081 -89 3 Z " fill="#000000" transform="translate(239,35)"/>
<path d="M0 0 C0.78069855 0.00432037 1.56139709 0.00864075 2.36575317 0.01309204 C15.90218703 0.1004261 29.16319711 0.92425091 42.5 3.375 C43.41797363 3.54128906 44.33594727 3.70757812 45.28173828 3.87890625 C63.1382487 7.2604653 77.46925886 13.70270253 91.5 25.375 C92.38429688 26.1071875 93.26859375 26.839375 94.1796875 27.59375 C103.99243353 36.06432712 113.34380633 46.2300512 114.73828125 59.671875 C115.00829586 68.59656856 112.41107095 73.58841329 106.375 80.0625 C96.94378678 89.05938103 86.07154317 91.84332706 73.26953125 91.6171875 C58.31476011 90.65636283 44.70217478 83.10997695 34.5 72.375 C33.71625 71.364375 32.9325 70.35375 32.125 69.3125 C22.68075946 58.74394511 8.19587486 53.16488906 -5.7265625 52.13671875 C-25.01142215 51.71555515 -39.66216967 61.80855488 -53.5 74.375 C-57.43825241 78.15846486 -61.28982463 82.02661306 -65.1171875 85.921875 C-65.69557373 86.51049316 -66.27395996 87.09911133 -66.86987305 87.70556641 C-68.3429293 89.21414192 -69.80311788 90.735256 -71.26171875 92.2578125 C-73.5 94.375 -73.5 94.375 -76.4375 95.5 C-79.92369728 95.35770623 -81.55272796 94.31988212 -84.203125 92.08984375 C-89.7269769 84.78571428 -88.16579893 72.99901332 -87.5 64.375 C-84.24307963 44.99838516 -70.06021232 25.02114656 -54.5 13.375 C-50.94386738 11.10132325 -47.31546758 9.17506141 -43.5 7.375 C-42.72269531 6.99601562 -41.94539063 6.61703125 -41.14453125 6.2265625 C-28.15561165 0.43920469 -13.97974294 -0.14769509 0 0 Z M-65.75 28.0625 C-78.64865567 44.46371745 -86.20522574 61.03671087 -84.81762695 82.25195312 C-84.34836399 85.38854859 -83.22795554 87.73976469 -81.5 90.375 C-78.94278263 91.80057356 -78.94278263 91.80057356 -76.5 92.375 C-71.97772054 88.65366922 -67.87006284 84.77677582 -64 80.375 C-51.47651422 66.25954569 -32.89373333 50.72358475 -13.4609375 49.125 C3.45853206 48.51391306 19.10816023 53.65171767 31.9375 64.875 C34.66072425 67.44984345 37.11810437 70.06122031 39.4375 73 C46.60994139 81.68348944 58.57237169 86.63503537 69.5 88.375 C81.63645452 89.22987728 91.9301876 87.96146654 101.64453125 80.08984375 C107.13654009 75.01407137 111.543911 70.69262301 111.875 62.9375 C111.63986473 50.45724315 104.06285413 40.76544767 95.5 32.375 C81.46111796 19.476205 65.52803295 11.10090281 46.875 7.25 C46.10655762 7.09112305 45.33811523 6.93224609 44.54638672 6.76855469 C30.66241114 4.08279277 16.87048191 3.02103184 2.7512207 3.05932617 C0.30310475 3.06251223 -2.14382645 3.03880304 -4.59179688 3.01367188 C-28.64526846 2.91586342 -49.67218649 9.65600472 -65.75 28.0625 Z " fill="#000000" transform="translate(179.5,47.625)"/>
<path d="M0 0 C2.95237508 2.44831104 3.86325427 3.901264 4.3359375 7.69921875 C4.60156984 15.84187167 3.4875778 23.3595316 -2.2578125 29.546875 C-9.91636411 35.93472523 -18.28750491 38.2192466 -28.1015625 37.57421875 C-38.6126487 36.02599263 -47.01310069 29.78114718 -54 22 C-58.2855637 15.89896328 -61.87503155 10.62527493 -61 3 C-57.2224232 -3.92075138 -50.96692904 -6.48304959 -43.76171875 -8.68359375 C-27.83599348 -12.56465285 -12.95037777 -10.18297339 0 0 Z M-58 3 C-58.31712071 9.30105064 -56.58874514 13.43793739 -52.609375 18.22265625 C-45.40882606 26.17471879 -37.39157682 34.12857633 -26.13671875 35.03515625 C-18.28810523 34.90602001 -11.03549922 32.91434105 -5.30859375 27.359375 C-0.01228643 21.4887693 1.4951116 16.47795855 1.3046875 8.5859375 C0.86850852 4.88400822 -0.16620536 3.40872544 -3 1 C-18.5582027 -10.659872 -43.78494288 -11.21505712 -58 3 Z " fill="#000000" transform="translate(272,87)"/>
<path d="M0 0 C4.55047224 2.73706244 6.60049409 5.6873719 8.22265625 10.82421875 C8.09765625 14.26171875 8.09765625 14.26171875 6.0625 16.8046875 C2.74147941 19.55689034 -0.42308056 20.75751168 -4.46484375 22.01171875 C-11.5445761 24.40563168 -16.38299998 27.57010294 -22.21875 32.265625 C-26.9752144 35.8035483 -31.37876479 37.30845169 -37.27734375 37.19921875 C-39.90234375 36.26171875 -39.90234375 36.26171875 -41.77734375 34.63671875 C-44.73351437 28.39591411 -42.35650266 22.35722326 -40.1640625 16.1953125 C-36.91636275 8.64415921 -31.03107922 1.77445492 -23.57421875 -1.87890625 C-15.848332 -4.36384059 -7.28334743 -3.37520979 0 0 Z M-33.29296875 9.78515625 C-37.45997224 16.19748686 -41.28314667 24.49470235 -39.90234375 32.26171875 C-37.23837614 34.43708424 -37.23837614 34.43708424 -34.9921875 34.265625 C-28.09995533 32.85215452 -23.44683072 29.4399172 -17.90234375 25.26171875 C-13.63838252 22.17180712 -9.718937 20.32434228 -4.71484375 18.69921875 C0.85058721 17.00565322 0.85058721 17.00565322 5.09765625 13.26171875 C4.2718309 9.3578171 3.66452527 6.84433413 0.84765625 3.94921875 C-11.12780962 -3.39936258 -24.58515542 -0.87991788 -33.29296875 9.78515625 Z " fill="#000000" transform="translate(158.90234375,68.73828125)"/>
</svg>
